<svg aria-hidden="true" style="position: absolute; width: 0; height: 0; overflow: hidden;" version="1.1" xmlns="http://www.w3.org/2000/svg" xmlns:xlink="http://www.w3.org/1999/xlink">
<defs>
<symbol id="insta-42" viewBox="0 0 42 42">
<path d="M28.703 18.225c-0.040-0.828-0.174-1.399-0.366-1.898-0.194-0.519-0.504-0.991-0.901-1.384-0.392-0.397-0.865-0.702-1.384-0.901-0.499-0.193-1.069-0.326-1.898-0.361-0.84-0.041-1.105-0.051-3.227-0.051s-2.387 0.010-3.222 0.046c-0.829 0.035-1.399 0.173-1.893 0.361-0.543 0.21-1.006 0.518-1.389 0.906l-0 0c-0.397 0.393-0.702 0.865-0.902 1.384-0.193 0.499-0.325 1.065-0.361 1.893-0.040 0.84-0.051 1.105-0.051 3.227s0.010 2.392 0.046 3.222c0.035 0.833 0.173 1.405 0.361 1.898 0.21 0.543 0.518 1.006 0.906 1.388l0 0c0.392 0.392 0.865 0.703 1.384 0.901 0.5 0.188 1.065 0.326 1.898 0.361 0.83 0.035 1.1 0.046 3.222 0.046s2.387-0.010 3.222-0.046c0.828-0.035 1.399-0.173 1.898-0.361 1.052-0.418 1.869-1.237 2.275-2.263l0.009-0.027c0.193-0.499 0.326-1.065 0.361-1.898 0.040-0.83 0.046-1.1 0.046-3.222s0-2.387-0.035-3.222zM27.294 24.609c-0.037 0.763-0.163 1.175-0.269 1.45-0.271 0.684-0.803 1.215-1.469 1.48l-0.018 0.006c-0.275 0.107-0.687 0.233-1.445 0.27-0.83 0.035-1.075 0.045-3.161 0.045s-2.336-0.010-3.16-0.045c-0.763-0.037-1.175-0.163-1.45-0.27-0.336-0.122-0.646-0.325-0.896-0.586-0.259-0.249-0.457-0.554-0.585-0.895-0.107-0.275-0.234-0.692-0.27-1.45-0.035-0.825-0.046-1.075-0.046-3.156 0-2.087 0.011-2.341 0.046-3.16 0.035-0.763 0.163-1.175 0.27-1.45 0.134-0.353 0.333-0.654 0.584-0.901l0-0c0.256-0.259 0.56-0.457 0.902-0.58 0.275-0.107 0.691-0.235 1.45-0.27 0.825-0.035 1.073-0.046 3.161-0.046 2.086 0 2.331 0.011 3.155 0.046 0.763 0.035 1.175 0.163 1.45 0.27 0.353 0.129 0.654 0.327 0.9 0.579l0 0c0.253 0.247 0.452 0.548 0.576 0.885l0.005 0.017c0.106 0.275 0.233 0.686 0.269 1.45 0.035 0.824 0.045 1.073 0.045 3.16 0 2.081-0.010 2.326-0.045 3.151z"></path>
<path d="M20.927 17.432c-5.237 0.117-5.237 7.919 0 8.031 5.241-0.112 5.241-7.914 0-8.031zM20.927 24.053c-3.47 0-3.47-5.211 0-5.211 3.476 0 3.476 5.211 0 5.211zM26.042 17.275c0 1.252-1.879 1.252-1.879 0s1.879-1.252 1.879 0z"></path>
</symbol>
<symbol id="twit-42" viewBox="0 0 42 42">
<path d="M28.671 16.599c-0.59 0.261-1.211 0.427-1.847 0.509 0.672-0.398 1.175-1.028 1.41-1.77-0.625 0.371-1.313 0.636-2.031 0.772-0.602-0.643-1.35-0.961-2.097-1.012h-0.434c-1.564 0.107-3.012 1.351-3.012 3.205 0 0.254 0.025 0.499 0.075 0.728-2.578-0.122-4.98-1.345-6.603-3.349-0.854 1.46-0.422 3.338 0.981 4.278-0.503-0.009-1.002-0.147-1.445-0.39v0.035c0 1.526 1.074 2.839 2.564 3.149-0.235 0.065-0.505 0.102-0.784 0.102-0.019 0-0.038-0-0.058-0.001l0.003 0c-0.023 0.001-0.050 0.001-0.077 0.001-0.187 0-0.37-0.019-0.546-0.054l0.018 0.003c0.422 1.302 1.623 2.197 2.997 2.228-1.135 0.889-2.535 1.369-3.974 1.369-0.264 0-0.514-0.011-0.768-0.046 1.381 0.902 3.071 1.439 4.887 1.439 0.009 0 0.019 0 0.028-0h-0.001c5.897 0 9.122-4.884 9.122-9.116 0-0.142-0.005-0.28-0.014-0.417 0.638-0.454 1.172-1.007 1.593-1.642l0.014-0.023z"></path>
</symbol>
<symbol id="fb-42" viewBox="0 0 42 42">
<path d="M23.878 16.228h1.425v-2.483c-0.691-0.077-1.384-0.112-2.081-0.112-2.055 0-3.464 1.292-3.464 3.673v2.188h-2.269v2.778h2.269v6.99h2.783v-6.99h2.178l0.345-2.778h-2.523v-1.913c0-0.803 0.219-1.353 1.337-1.353z"></path>
</symbol>
<symbol id="likin-42" viewBox="0 0 42 42">
<path d="M28.63 29.262h0.005v-5.733c0-2.804-0.606-4.966-3.881-4.966-1.577 0-2.636 0.864-3.068 1.684h-0.045v-1.42h-3.104v10.435h3.235v-5.169c0-1.358 0.26-2.67 1.944-2.67 1.658 0 1.683 1.552 1.683 2.763v5.077zM13.261 18.827h3.242v10.435h-3.242zM14.884 13.633c-1.037 0-1.877 0.84-1.877 1.877 0 1.032 0.84 1.893 1.877 1.893 1.032 0 1.878-0.861 1.878-1.893 0-1.037-0.845-1.877-1.882-1.877h0.004z"></path>
</symbol>
</defs>
</svg>
